<?xml version="1.0" encoding="UTF-8"?>
<svg id="background" xmlns="http://www.w3.org/2000/svg" viewBox="0 0 592.03 577.6">
  <defs>
    <style>
      .cls-1, .cls-2 {
        fill: #8bc53f;
      }

      .cls-3, .cls-4 {
        fill: #1b763b;
      }

      .cls-5 {
        font-family: CocogooseCompressedTrial-Bold, 'Cocogoose Compressed Trial';
        font-size: 98px;
        font-weight: 700;
      }

      .cls-4, .cls-2, .cls-6 {
        stroke-width: 0px;
      }

      .cls-6 {
        fill: #f6921e;
      }
    </style>
  </defs>
  <g>
    <g>
      <path class="cls-4" d="m164.61,304.05c71.9,69.1,177.69,93.3,204.78,97.65-18.57-128.28-142.13-218.59-273.57-191.69-17.66,152.83,134.81,267.03,275.49,210.11,0-.11-.02-.22-.02-.32-149.26-18.21-206.68-115.74-206.68-115.74Z"/>
      <path class="cls-2" d="m495.87,210.01c-14.96-3.06-30.44-4.67-46.31-4.67-53.37,0-102.45,18.25-141.44,48.79,19.73,18.13,36.47,39.47,49.45,63.19,30.69-17.4,78.27-46.75,95.03-70.7-20.98,38.21-45.85,55.71-87.92,84.76,11.75,25.19,19.41,52.69,21.99,81.72,65.59-33.2,110.6-101.19,110.6-179.74,0-7.91-.51-15.7-1.39-23.37Z"/>
    </g>
    <path class="cls-6" d="m241.09,129.92l14.59,85.42c10.6,4.73,20.78,10.3,30.44,16.61l-27-105.87c20.33-9.41,32.77-39.73,25.98-71.66-7.52-35.4-35.82-59.37-63.22-53.55-27.39,5.82-43.49,39.24-35.97,74.63,6.79,31.94,30.49,54.56,55.18,54.41Z"/>
    <path class="cls-6" d="m335.77,131.67l-25.14,98.57c9.54-6.05,19.45-11.33,29.68-15.78l13.48-78.96c22.4-.34,39.23-24.42,46.02-56.36,2.22-10.45,7.36-38.7,3.66-56.41-.29-1.41-1.53-2.42-2.97-2.42-1.44,0-2.67,1-2.98,2.41l-13.87,65.27c-.3,1.42-1.16,2.66-2.37,3.45-1.21.79-2.7,1.07-4.12.77l-.31-.07c-2.96-.63-4.84-3.53-4.22-6.49l13.81-64.95c.68-3.21-1.36-6.37-4.58-7.05l-.11-.02c-1.54-.33-3.15-.03-4.47.83-1.32.86-2.25,2.21-2.58,3.75l-13.81,64.95c-.3,1.42-1.15,2.66-2.37,3.45-1.21.79-2.7,1.07-4.12.76l-.31-.07c-2.95-.63-4.85-3.53-4.21-6.49l13.8-64.95c.33-1.54.03-3.15-.83-4.47-.86-1.32-2.21-2.25-3.75-2.58-3.27-.69-6.49,1.39-7.18,4.66l-13.78,64.84c-.3,1.42-1.16,2.66-2.37,3.45-1.22.79-2.7,1.06-4.12.76l-.31-.07c-2.95-.63-4.84-3.53-4.21-6.49l13.93-65.54c.29-1.36-.38-2.74-1.63-3.36-1.25-.61-2.76-.3-3.66.76-11.61,13.71-18.91,41.39-21.41,53.15-6.79,31.94-1.21,60.79,21.41,70.69Z"/>
  </g>
  <text class="cls-5" transform="translate(77.69 536.97)"><tspan class="cls-3" x="0" y="0">Nutri</tspan><tspan class="cls-1" x="207.54" y="0">Track</tspan></text>
</svg>